<svg xmlns="http://www.w3.org/2000/svg" viewBox="0 0 800 600" width="100%" height="100%"><defs><linearGradient id="bgAudit" x1="0%" y1="0%" x2="100%" y2="100%"><stop offset="0%" stop-color="#022c22" /><stop offset="100%" stop-color="#064e3b" /></linearGradient><linearGradient id="bookGlow" x1="0%" y1="0%" x2="0%" y2="100%"><stop offset="0%" stop-color="#34d399" /><stop offset="100%" stop-color="#059669" /></linearGradient></defs><rect width="800" height="600" fill="url(#bgAudit)" /><path d="M 400 200 L 400 450 L 250 400 L 250 150 Z" fill="url(#bookGlow)" opacity="0.8" /><path d="M 400 200 L 400 450 L 550 400 L 550 150 Z" fill="url(#bookGlow)" opacity="0.5" /><line x1="280" y1="200" x2="380" y2="230" stroke="#fff" stroke-width="4" stroke-linecap="round" opacity="0.6"/><line x1="280" y1="240" x2="360" y2="265" stroke="#fff" stroke-width="4" stroke-linecap="round" opacity="0.6"/><line x1="280" y1="280" x2="380" y2="310" stroke="#fff" stroke-width="4" stroke-linecap="round" opacity="0.6"/><line x1="420" y1="230" x2="520" y2="200" stroke="#fff" stroke-width="4" stroke-linecap="round" opacity="0.6"/><line x1="440" y1="265" x2="520" y2="240" stroke="#fff" stroke-width="4" stroke-linecap="round" opacity="0.6"/><g fill="#10b981"><circle cx="400" cy="150" r="15" /><circle cx="340" cy="100" r="10" /><circle cx="460" cy="100" r="10" /><circle cx="400" cy="60" r="8" /></g><g stroke="#10b981" stroke-width="2" opacity="0.5"><line x1="400" y1="200" x2="400" y2="150" /><line x1="400" y1="150" x2="340" y2="100" /><line x1="400" y1="150" x2="460" y2="100" /><line x1="400" y1="150" x2="400" y2="60" /></g><rect x="250" y="150" width="300" height="300" fill="none" stroke="#6ee7b7" stroke-width="2" rx="20" stroke-dasharray="15 10" opacity="0.3"/></svg>
