<svg xmlns="http://www.w3.org/2000/svg" viewBox="0 0 800 600" width="100%" height="100%"><defs><linearGradient id="bgData" x1="0%" y1="0%" x2="100%" y2="100%"><stop offset="0%" stop-color="#0f172a" /><stop offset="100%" stop-color="#1e1b4b" /></linearGradient><linearGradient id="glow" x1="0%" y1="0%" x2="100%" y2="100%"><stop offset="0%" stop-color="#3b82f6" /><stop offset="100%" stop-color="#8b5cf6" /></linearGradient></defs><rect width="800" height="600" fill="url(#bgData)" /><circle cx="400" cy="300" r="80" fill="url(#glow)" opacity="0.8" /><circle cx="400" cy="300" r="100" fill="none" stroke="#3b82f6" stroke-width="2" stroke-dasharray="10 5" /><circle cx="400" cy="300" r="140" fill="none" stroke="#8b5cf6" stroke-width="1" opacity="0.5" /><g stroke="rgba(255,255,255,0.2)" stroke-width="2"><line x1="400" y1="300" x2="200" y2="150" /><line x1="400" y1="300" x2="600" y2="150" /><line x1="400" y1="300" x2="200" y2="450" /><line x1="400" y1="300" x2="600" y2="450" /><line x1="400" y1="300" x2="150" y2="300" /><line x1="400" y1="300" x2="650" y2="300" /></g><circle cx="200" cy="150" r="30" fill="#2dd4bf" /><circle cx="600" cy="150" r="30" fill="#f43f5e" /><circle cx="200" cy="450" r="30" fill="#eab308" /><circle cx="600" cy="450" r="30" fill="#a855f7" /><circle cx="150" cy="300" r="20" fill="#3b82f6" /><circle cx="650" cy="300" r="20" fill="#ec4899" /><circle cx="280" cy="210" r="5" fill="#fff" opacity="0.8" /><circle cx="520" cy="390" r="5" fill="#fff" opacity="0.8" /><circle cx="250" cy="300" r="5" fill="#fff" opacity="0.8" /><circle cx="480" cy="210" r="5" fill="#fff" opacity="0.8" /><circle cx="320" cy="390" r="5" fill="#fff" opacity="0.8" /></svg>
