<svg xmlns="http://www.w3.org/2000/svg" viewBox="0 0 800 600" width="100%" height="100%"><defs><linearGradient id="bgMonitor" x1="0%" y1="0%" x2="100%" y2="100%"><stop offset="0%" stop-color="#0f172a" /><stop offset="100%" stop-color="#000000" /></linearGradient><radialGradient id="lens" cx="50%" cy="50%" r="50%"><stop offset="0%" stop-color="#38bdf8" stop-opacity="0.8"/><stop offset="50%" stop-color="#0284c7" stop-opacity="0.4"/><stop offset="100%" stop-color="#0ea5e9" stop-opacity="0"/></radialGradient></defs><rect width="800" height="600" fill="url(#bgMonitor)" /><g stroke="rgba(56,189,248,0.1)" stroke-width="1"><path d="M 0 100 L 800 100 M 0 200 L 800 200 M 0 300 L 800 300 M 0 400 L 800 400 M 0 500 L 800 500" /><path d="M 100 0 L 100 600 M 200 0 L 200 600 M 300 0 L 300 600 M 400 0 L 400 600 M 500 0 L 500 600 M 600 0 L 600 600 M 700 0 L 700 600" /></g><circle cx="400" cy="300" r="160" fill="none" stroke="#0ea5e9" stroke-width="2" stroke-dasharray="10 6" opacity="0.7" /><circle cx="400" cy="300" r="130" fill="url(#lens)" /><circle cx="400" cy="300" r="70" fill="#0284c7" opacity="0.8" /><circle cx="400" cy="300" r="35" fill="#0f172a" /><circle cx="410" cy="285" r="10" fill="#fff" opacity="0.6" /><line x1="200" y1="300" x2="600" y2="300" stroke="#7dd3fc" stroke-width="3" opacity="0.6"><animate attributeName="y1" values="120;480;120" dur="4s" repeatCount="indefinite" /><animate attributeName="y2" values="120;480;120" dur="4s" repeatCount="indefinite" /></line><path d="M 220 160 L 180 160 L 180 200" fill="none" stroke="#38bdf8" stroke-width="4" /><path d="M 580 160 L 620 160 L 620 200" fill="none" stroke="#38bdf8" stroke-width="4" /><path d="M 220 440 L 180 440 L 180 400" fill="none" stroke="#38bdf8" stroke-width="4" /><path d="M 580 440 L 620 440 L 620 400" fill="none" stroke="#38bdf8" stroke-width="4" /><circle cx="350" cy="230" r="6" fill="#facc15" /><circle cx="480" cy="260" r="5" fill="#facc15" /><circle cx="420" cy="390" r="7" fill="#ef4444" /><circle cx="300" cy="350" r="5" fill="#10b981" /><circle cx="500" cy="350" r="5" fill="#10b981" /></svg>
