<svg xmlns="http://www.w3.org/2000/svg" viewBox="0 0 800 600" width="100%" height="100%"><defs><linearGradient id="bgBook" x1="0%" y1="0%" x2="100%" y2="100%"><stop offset="0%" stop-color="#172554" /><stop offset="100%" stop-color="#1e3a8a" /></linearGradient><linearGradient id="selectGlow" x1="0%" y1="0%" x2="100%" y2="100%"><stop offset="0%" stop-color="#60a5fa" /><stop offset="100%" stop-color="#2563eb" /></linearGradient></defs><rect width="800" height="600" fill="url(#bgBook)" /><rect x="180" y="220" width="160" height="240" fill="#3b82f6" opacity="0.3" rx="10" transform="rotate(-15 180 220)" /><rect x="460" y="220" width="160" height="240" fill="#3b82f6" opacity="0.3" rx="10" transform="rotate(15 620 220)" /><rect x="300" y="160" width="200" height="280" fill="url(#selectGlow)" rx="10" /><rect x="320" y="180" width="160" height="240" fill="#fff" opacity="0.1" rx="5" /><circle cx="400" cy="300" r="60" fill="#10b981" /><circle cx="400" cy="300" r="75" fill="none" stroke="#10b981" stroke-width="2" stroke-dasharray="8 8" opacity="0.6" /><path d="M 370 300 L 390 320 L 435 270" fill="none" stroke="#fff" stroke-width="10" stroke-linecap="round" stroke-linejoin="round" /><circle cx="280" cy="120" r="8" fill="#fbbf24" /><circle cx="520" cy="460" r="6" fill="#fbbf24" /><circle cx="490" cy="110" r="10" fill="#fbbf24" /><circle cx="270" cy="420" r="7" fill="#fbbf24" /></svg>
